<?xml version="1.0" standalone="no"?>
<!DOCTYPE svg PUBLIC "-//W3C//DTD SVG 20010904//EN"
 "http://www.w3.org/TR/2001/REC-SVG-20010904/DTD/svg10.dtd">
<svg version="1.0" xmlns="http://www.w3.org/2000/svg"
 width="512.000000pt" height="512.000000pt" viewBox="0 0 512.000000 512.000000"
 preserveAspectRatio="xMidYMid meet">
<metadata>
Created by potrace 1.14, written by Peter Selinger 2001-2017
</metadata>
<g transform="translate(0.000000,512.000000) scale(0.100000,-0.100000)"
fill="#000000" stroke="none">
<path d="M0 2560 l0 -2560 2560 0 2560 0 0 2560 0 2560 -2560 0 -2560 0 0
-2560z m3838 1658 c136 -51 232 -185 232 -325 l0 -44 -82 3 -83 3 -6 50 c-15
122 -91 185 -224 185 -74 0 -126 -18 -168 -58 -60 -57 -61 -64 -65 -451 -2
-231 1 -371 8 -405 21 -97 85 -156 187 -172 105 -16 197 27 239 113 22 45 26
65 27 170 l2 118 -137 3 -138 3 0 74 0 75 221 0 220 0 -3 -217 c-3 -216 -3
-219 -32 -280 -33 -72 -104 -145 -169 -173 -64 -28 -161 -44 -230 -37 -175 17
-282 92 -339 237 -21 52 -22 73 -26 407 -5 466 8 541 107 640 105 104 303 139
459 81z m-2548 -593 l0 -605 305 0 305 0 0 -75 0 -75 -390 0 -390 0 0 680 0
680 85 0 85 0 0 -605z m1110 0 l0 -605 305 0 305 0 0 -75 0 -75 -390 0 -390 0
0 680 0 680 85 0 85 0 0 -605z m-674 -2040 c96 -368 174 -673 174 -677 0 -5
-38 -8 -84 -8 l-84 0 -43 180 -43 180 -207 0 -206 0 -44 -180 -43 -180 -87 0
-88 0 19 68 c10 37 89 339 175 672 87 333 159 609 162 613 2 4 54 6 115 5
l111 -3 173 -670z m954 664 c196 -31 318 -164 328 -358 8 -141 -22 -232 -101
-314 -92 -94 -170 -117 -404 -117 l-173 0 0 -280 0 -280 -85 0 -85 0 0 680 0
680 228 0 c125 0 256 -5 292 -11z m1123 1 c133 -21 241 -100 294 -215 22 -48
28 -79 31 -153 7 -140 -21 -222 -101 -305 -92 -94 -170 -117 -404 -117 l-173
0 0 -280 0 -280 -85 0 -85 0 0 680 0 680 233 0 c127 0 258 -4 290 -10z"/>
<path d="M1431 2086 c-1 -10 -37 -167 -81 -348 -44 -181 -80 -331 -80 -334 0
-2 77 -4 171 -4 133 0 170 3 166 13 -2 6 -39 156 -82 332 -42 176 -81 329 -85
340 -8 19 -9 19 -9 1z"/>
<path d="M2330 1860 l0 -250 163 0 c141 0 168 3 207 21 97 44 135 106 135 224
0 98 -29 164 -91 207 -52 37 -119 48 -280 48 l-134 0 0 -250z"/>
<path d="M3450 1860 l0 -250 163 0 c141 0 168 3 207 21 97 44 135 106 135 224
0 67 -4 89 -25 129 -52 100 -124 126 -352 126 l-128 0 0 -250z"/>
</g>
</svg>
