<?xml version="1.0" standalone="no"?>
<!DOCTYPE svg PUBLIC "-//W3C//DTD SVG 20010904//EN"
 "http://www.w3.org/TR/2001/REC-SVG-20010904/DTD/svg10.dtd">
<svg version="1.0" xmlns="http://www.w3.org/2000/svg"
 width="512.000000pt" height="512.000000pt" viewBox="0 0 512.000000 512.000000"
 preserveAspectRatio="xMidYMid meet">
<metadata>
Created by potrace 1.14, written by Peter Selinger 2001-2017
</metadata>
<g transform="translate(0.000000,512.000000) scale(0.100000,-0.100000)"
fill="#000000" stroke="none">
<path d="M290 5101 c-142 -45 -246 -158 -279 -301 -14 -62 -15 -4396 -1 -4471
18 -93 57 -157 151 -242 20 -19 87 -53 141 -72 38 -13 310 -15 2254 -15 l2210
0 65 22 c79 26 121 53 176 109 50 53 90 129 103 200 6 33 10 837 10 2238 0
2383 3 2247 -55 2344 -56 94 -131 153 -244 192 -38 13 -316 15 -2260 14 -2090
0 -2219 -1 -2271 -18z"/>
</g>
</svg>
